<?xml version="1.0" encoding="UTF-8"?>
<svg width="2739px" height="3150px" viewBox="0 0 2739 3150" version="1.1" xmlns="http://www.w3.org/2000/svg" xmlns:xlink="http://www.w3.org/1999/xlink">
    <title>Group</title>
    <defs>
        <linearGradient x1="0%" y1="50%" x2="100%" y2="50%" id="linearGradient-1">
            <stop stop-color="#4A40DF" offset="0%"></stop>
            <stop stop-color="#5383F6" offset="100%"></stop>
        </linearGradient>
    </defs>
    <g id="Logo" stroke="none" stroke-width="1" fill="none" fill-rule="evenodd">
        <g id="Icon" transform="translate(-252.000000, -46.000000)" fill="url(#linearGradient-1)">
            <g id="Group" transform="translate(252.000000, 46.500000)">
                <path d="M1391.99218,6.8505553 L2716.49218,771.196482 C2730.41963,779.233775 2739,794.091962 2739,810.172141 L2739,2338.82786 C2739,2354.90804 2730.41963,2369.76622 2716.49218,2377.80352 L1391.99218,3142.14944 C1378.0731,3150.1819 1360.9269,3150.1819 1347.00782,3142.14944 L22.5078244,2377.80352 C8.58036681,2369.76622 -5.68434189e-14,2354.90804 2.84217094e-14,2338.82786 L-1.42108547e-13,810.172141 C-8.52651283e-14,794.091962 8.58036681,779.233775 22.5078244,771.196482 L1347.00782,6.8505553 C1360.9269,-1.18189865 1378.0731,-1.18189865 1391.99218,6.8505553 Z M1878.10178,767.454059 L1368.43834,1346.65542 L862.678776,771.892059 L414.386033,1028.7352 C410.031747,1031.22993 407.345776,1035.8644 407.345776,1040.88271 L407.345776,1040.88271 L407.345776,2132.61815 C407.345776,2137.63646 410.031747,2142.27093 414.386033,2144.76566 L414.386033,2144.76566 L839.080776,2388.0882 L839.080776,1458.6992 L1363.51924,2060.78453 L1363.6483,2060.92371 C1364.75229,2062.04213 1366.55053,2062.12265 1367.75184,2061.07626 L1367.75184,2061.07626 L1367.90273,2060.93542 C1367.95138,2060.88676 1367.99836,2060.83644 1368.04358,2060.78453 L1368.04358,2060.78453 L1900.21678,1449.8182 L1900.21678,2393.3752 L2334.14025,2144.76566 C2338.49453,2142.27093 2341.1805,2137.63646 2341.1805,2132.61815 L2341.1805,2132.61815 L2341.1805,1040.88271 C2341.1805,1035.8644 2338.49453,1031.22993 2334.14025,1028.7352 L2334.14025,1028.7352 L1878.10178,767.454059 Z" id="Combined-Shape"></path>
            </g>
        </g>
    </g>
</svg>